<?xml version="1.0" encoding="utf-8"?>
<!-- Generator: Adobe Illustrator 21.1.0, SVG Export Plug-In . SVG Version: 6.00 Build 0)  -->
<svg version="1.1" id="Livello_1" xmlns="http://www.w3.org/2000/svg" xmlns:xlink="http://www.w3.org/1999/xlink" x="0px" y="0px"
	 viewBox="0 0 467 326.5" style="enable-background:new 0 0 467 326.5;" xml:space="preserve">
<style type="text/css">
	.st0{fill:#FFFFFF;}
</style>
<title>Tavola disegno 1 copia 5</title>
<path class="st0" d="M417.1,53H302v33.7h115.2V53H417.1z"/>
<path class="st0" d="M462,230.1c-1.4-16.1-1.4-31.1-4.2-45.6c-7-37-26.7-63.9-64.9-73.1c-12.8-2.9-26-4.1-39.2-3.4
	c-35.6,1.5-64.9,15.5-83.1,47.4c-17.7,31.1-22.1,64.3-12,99c10.1,34.6,32.6,56.4,67.5,65.2c21.5,5.2,43.9,5.9,65.6,1.8
	c15.6-2.7,30.3-8.1,42.9-18.3c16.8-13.8,23.8-32,23.7-53.8h-49.2c-1.6,11.1-6.8,19.6-16.8,24c-18.6,8.1-37.4,8.7-55.8-0.3
	c-15.3-7.5-24.7-26.7-21.4-42.9L462,230.1z M361.6,148.8c26.2-0.6,42.9,15.4,44.2,43.3h-91.2C314.5,169.6,336.6,149.3,361.6,148.8
	L361.6,148.8z"/>
<path class="st0" d="M6.8,36.2v281.2c2.1,0.1,3.6,0.3,5.1,0.3c47.6,0,95.3,0,142.9,0c6.6,0,13.1-0.7,19.6-2
	c33-6.8,57.8-23.5,65.3-58.3c2.6-12.4,3.2-25.1,1.9-37.7c-3.6-33.6-17.6-49.5-46.5-55.3c3-1.3,5.2-2.3,7.4-3.2
	c10.8-4.1,19.5-12.2,24.5-22.6c14.7-30.2,2.1-73-26.5-90.5C185.6,38.9,169.1,36,151.8,36c-46.1,0-92.2,0-138.3,0
	C11.3,35.8,9.1,36.1,6.8,36.2z M71.1,85.9h72.5c21.4,0,28.9,7.6,29,29.4c0.1,3.8-0.1,7.5-0.5,11.3c-2.3,15.8-9.3,22.1-25.3,22.1
	c-24.3,0-48.6,0-72.9,0c-0.9-0.1-1.8-0.2-2.8-0.5V85.9z M71,193c2.3-0.2,4.5-0.5,6.6-0.5c24.1,0,48.1,0,72.1,0
	c16.2,0,27.5,7.9,30.7,23.7c1.8,9.4,1.9,19,0.3,28.4c-2.1,12.7-11.1,21.6-23.8,22.1c-28.5,1.1-57,0.3-86,0.3L71,193z"/>
</svg>
