<?xml version="1.0" encoding="utf-8"?>
<!-- Generator: Adobe Illustrator 21.1.0, SVG Export Plug-In . SVG Version: 6.00 Build 0)  -->
<svg version="1.1" id="Livello_1" xmlns="http://www.w3.org/2000/svg" xmlns:xlink="http://www.w3.org/1999/xlink" x="0px" y="0px"
	 viewBox="0 0 2856.9 861.4" style="enable-background:new 0 0 2856.9 861.4;" xml:space="preserve">
<style type="text/css">
	.st0{fill:#FFFFFF;}
</style>
<path class="st0" d="M552.7,406.8H311.6c-6.2,0-11.2,5-11.2,11.3V536c0,6.3,5,11.3,11.2,11.3h94.1v146.5c0,0-21.1,7.1-79.5,7.1
	c-68.9,0-165.2-25.2-165.2-236.8s100.2-239.5,194.3-239.5c81.5,0,116.5,14.3,138.9,21.2c7,2.2,13.4-4.8,13.4-11.1l26.9-113.9
	c0-2.9-1-6.4-4.3-8.8c-9-6.3-64.3-37.3-204-37.3C165.1,74.7,0,143.2,0,472.5c0,329.2,189.1,378.2,348.4,378.2
	c131.9,0,212-56.3,212-56.3c3.3-1.8,3.6-6.4,3.6-8.5V418.1C564,411.9,558.9,406.8,552.7,406.8z M1772.4,102.8h-135.7
	c-6.3,0-11.3,5-11.3,11.3v262.4h-211.6V114.1c0-6.3-5.1-11.3-11.2-11.3h-135.8c-6.1,0-11.1,5-11.1,11.3v710.5
	c0,6.3,5,11.3,11.1,11.3h135.8c6.2,0,11.2-5.1,11.2-11.3V520.8h211.6l-0.5,303.9c0,6.3,5,11.3,11.1,11.3h135.9
	c6.3,0,11.1-5.1,11.1-11.3l0.5-710.5C1783.6,107.9,1778.5,102.8,1772.4,102.8z M714.9,118.9c-48.4,0-87.6,39.6-87.6,88.4
	c0,48.9,39.2,88.4,87.6,88.4s87.5-39.6,87.5-88.4C802.5,158.5,763.3,118.9,714.9,118.9z M792.9,346.8c0-6.2-5-11.3-11.1-11.3H646.3
	c-6.3,0-11.7,6.4-11.7,12.7c0,0,0,394.7,0,469.9c0,13.7,8.6,17.9,19.7,17.9c0,0,57.7,0,122,0c13.3,0,16.8-6.5,16.8-18.2
	C793,792.6,793,694,793,674.9C792.9,656.6,792.9,346.8,792.9,346.8z M2298,336.5h-134.7c-6.2,0-11.1,5.1-11.1,11.3v348.3
	c0,0-34.2,25.2-82.9,25.2c-48.5,0-61.5-22-61.5-69.7c0-47.6,0-303.8,0-303.8c0-6.3-5.1-11.3-11.1-11.3H1860
	c-6.3,0-11.2,5.1-11.2,11.3c0,0,0,185.5,0,326.8s78.8,175.9,187,175.9c88.9,0,160.6-49.1,160.6-49.1s3.4,25.8,5.1,28.8
	c1.4,3.1,5.4,6.2,9.9,6.2h86.6c6.2,0,11.2-5.1,11.2-11.3l0.4-477.3C2309.1,341.6,2304.1,336.5,2298,336.5z M2666.9,320.5
	c-76.5,0-128.6,34.1-128.6,34.1V114.1c0-6.3-5.1-11.3-11.1-11.3h-136.3c-6.1,0-11.1,5-11.1,11.3l-0.4,710.5
	c0,6.3,5.1,11.3,11.2,11.3c0,0,94.8,0,94.9,0c4.2,0,7.4-2.2,9.8-6c2.4-3.8,5.7-32.8,5.7-32.8s55.6,52.8,161,52.8
	c123.8,0,194.8-62.8,194.8-281.9C2856.9,349.2,2743.5,320.5,2666.9,320.5z M2613.8,720.9c-46.7-1.4-78.3-22.6-78.3-22.6V473.2
	c0,0,31.3-19.2,69.7-22.6c48.5-4.3,95.4,10.3,95.4,126.1C2700.3,698.8,2679.2,722.9,2613.8,720.9z M1185.1,718.4
	c-6,0-21.2,2.4-36.8,2.4c-49.9,0-67-23.3-67-53.3c0-30.2,0-199.9,0-199.9h101.9c6.3,0,11.2-5,11.2-11.3V346.7
	c0.1-6.3-4.9-11.3-11.2-11.3h-101.9l-0.1-134.5c0-5.1-2.7-7.6-8.6-7.6H933.9c-5.4,0-8.3,2.4-8.3,7.6v139c0,0-69.6,16.8-74.3,18.2
	c-4.6,1.3-8.1,5.7-8.1,10.8v87.4c0,6.3,5.1,11.3,11.2,11.3h71.1c0,0,0,91.3,0,210.2c0,156.1,109.6,171.5,183.4,171.5
	c33.7,0,74.1-11,80.8-13.4c4.1-1.4,6.4-5.6,6.4-10.1v-96.1C1196.3,723.4,1191,718.3,1185.1,718.4z"/>
</svg>
