<?xml version="1.0" encoding="utf-8"?>
<!-- Generator: Adobe Illustrator 21.1.0, SVG Export Plug-In . SVG Version: 6.00 Build 0)  -->
<svg version="1.1" id="Livello_1" xmlns="http://www.w3.org/2000/svg" xmlns:xlink="http://www.w3.org/1999/xlink" x="0px" y="0px"
	 viewBox="0 0 467 465.5" style="enable-background:new 0 0 467 465.5;" xml:space="preserve">
<style type="text/css">
	.st0{fill:#FFFFFF;}
</style>
<title>Tavola disegno 1 copia 4</title>
<path class="st0" d="M352.3,139.3c14.3,0.4,26.3-10.9,26.7-25.2c0-0.3,0-0.7,0-1c0.5-14.6-10.9-26.9-25.6-27.4c-0.4,0-0.7,0-1.1,0
	c-14.7,0-26.6,11.8-26.9,26.4c-0.5,14.5,10.9,26.7,25.5,27.2C351.4,139.3,351.8,139.3,352.3,139.3z"/>
<path class="st0" d="M328.3,456.6c74.5-0.6,126.5-51.4,127.8-126.1c1.1-65,1.1-130,0-195.1c-1.3-73.1-52.4-123.9-124.7-124.8
	c-65.6-0.8-131.3-1-197,0.2C65.7,12,15.5,61.1,12.4,129.5c-1.5,34.6-0.3,69.4-0.3,104h-0.5c0,30-0.3,60.1,0.2,90.1
	c0,12.4,1.1,24.7,3.5,36.9c12.6,58.2,60.4,95.5,123.5,96.1S265.1,457.1,328.3,456.6z M51.8,325.2C51.4,263,51.3,200.7,52,138.5
	c0.3-13.3,2.7-26.4,7.3-38.9c11-30.4,35.3-46.6,66.2-47.4c70.5-1.9,141.2-2.6,211.7-0.3c47.9,1.5,77.7,36.2,78.5,84.5
	c0.5,32.5,0,65,0,97.6l0,0c0,30.4,0,60.7,0,91.1c-0.2,55.2-33,88.9-88.2,89.5c-62.6,0.6-125.1,0.6-187.7,0
	C86,413.8,52.1,379.4,51.8,325.2z"/>
<path class="st0" d="M348.8,232.8c-0.8-63.5-53-114.3-116.5-113.5c-62.1,0.8-112.4,50.8-113.5,113c-0.4,61.7,51.2,113.2,113.8,113.4
	C296.8,345.9,348.5,295.6,348.8,232.8z M233.4,305.7c-40.8,0.3-74.2-32.5-74.5-73.4c-0.3-40.8,32.5-74.2,73.4-74.5
	c40.8-0.3,74.2,32.5,74.5,73.4c0,0.1,0,0.1,0,0.2C306.9,272.1,274.2,305.3,233.4,305.7L233.4,305.7z"/>
</svg>
