<?xml version="1.0" encoding="utf-8"?>
<!-- Generator: Adobe Illustrator 21.1.0, SVG Export Plug-In . SVG Version: 6.00 Build 0)  -->
<svg version="1.1" id="Livello_1" xmlns="http://www.w3.org/2000/svg" xmlns:xlink="http://www.w3.org/1999/xlink" x="0px" y="0px"
	 viewBox="0 0 467 465.5" style="enable-background:new 0 0 467 465.5;" xml:space="preserve">
<style type="text/css">
	.st0{fill:#FFFFFF;}
</style>
<title>Tavola disegno 1 copia 6</title>
<path class="st0" d="M8,55.4c1.4-8.2,4.6-16.1,9.3-23c12.7-16.4,30-21.7,49.8-20.6c17.3,1,31.9,7.6,41.5,22.7
	c21.1,33-0.7,74.7-40,77.3c-14.2,0.9-27.8-0.9-39.8-9.3c-10.6-7.2-17.8-18.4-20-31c-0.2-1-0.5-1.9-0.9-2.8L8,55.4z"/>
<path class="st0" d="M164.3,442.5V152.1h96.3v39l0.9,0.3c0.9-1.2,1.9-2.4,2.7-3.6c19.4-28.2,46.4-42.1,80.5-42.7
	c24.2-0.4,47,4.4,67.1,18.4c22.8,15.9,35.3,38.7,41.9,65.1c3.6,14.7,5.4,29.8,5.3,44.9c0,55.2,0,110.4,0,165.6c0,1,0,2,0,3.3h-96.7
	v-5c0-49.6,0.2-99.2,0-148.9c0-10.5-1.2-21.1-3.5-31.3c-10.5-44.8-60.7-42.8-81-21.6c-10.3,10.8-16.7,23.3-16.8,38.4
	c0,54.2,0,108.3,0,162.5c0,1.9,0,3.7,0,5.9L164.3,442.5z"/>
<path class="st0" d="M110.2,442.5H14.1V152.1h96.1L110.2,442.5z"/>
</svg>
