<svg id="Livello_1" data-name="Livello 1" xmlns="http://www.w3.org/2000/svg" viewBox="0 0 467.04 465.47"><defs><style>.cls-1{fill:#fff;}</style></defs><title>Tavola disegno 1 copia 5</title><path class="cls-1" d="M319.32,147.72h-51v14.93h51Z"/><path class="cls-1" d="M339.19,226.16c-.61-7.15-.62-13.79-1.84-20.2-3.11-16.37-11.82-28.32-28.74-32.38a63.88,63.88,0,0,0-17.34-1.52c-15.76.66-28.76,6.87-36.81,21-7.84,13.78-9.78,28.5-5.32,43.83s14.44,25,29.91,28.86a69.38,69.38,0,0,0,29.06.81c6.92-1.21,13.44-3.59,19-8.12,7.46-6.11,10.53-14.16,10.51-23.81H315.83c-.71,4.91-3,8.68-7.46,10.63-8.22,3.57-16.58,3.87-24.72-.14-6.79-3.34-10.95-11.84-9.5-19Zm-44.47-36c11.6-.28,19,6.82,19.57,19.17H273.88C273.87,199.39,283.65,190.41,294.73,190.14Z"/><path class="cls-1" d="M137.56,140.31V264.85c.95.06,1.61.13,2.27.13,21.09,0,42.19,0,63.28,0a44.11,44.11,0,0,0,8.68-.87c14.61-3,25.61-10.42,28.91-25.84a53.42,53.42,0,0,0,.83-16.69c-1.61-14.86-7.8-21.93-20.61-24.51,1.31-.57,2.29-1,3.29-1.43a19.91,19.91,0,0,0,10.86-10c6.49-13.36.94-32.33-11.72-40.1-6.62-4.06-13.91-5.38-21.57-5.37q-30.63,0-61.26,0C139.56,140.13,138.58,140.25,137.56,140.31Zm28.51,22h32.09c9.47,0,12.82,3.36,12.86,13a36.4,36.4,0,0,1-.24,5c-1,7-4.13,9.77-11.2,9.79-10.76,0-21.53,0-32.29,0a9.13,9.13,0,0,1-1.22-.2ZM166,209.73c1-.08,2-.22,2.94-.22q16,0,31.93,0c7.18,0,12.2,3.51,13.59,10.48a36,36,0,0,1,.13,12.59c-.92,5.63-4.9,9.56-10.53,9.78-12.61.48-25.25.15-38.07.15Z"/></svg>