<svg id="Livello_1" data-name="Livello 1" xmlns="http://www.w3.org/2000/svg" viewBox="0 0 467.04 465.47"><defs><style>.cls-1{fill:#fff;}</style></defs><title>Tavola disegno 1 copia 4</title><path class="cls-1" d="M277,172.92a9.4,9.4,0,0,0,9.66-9.49A9.6,9.6,0,0,0,277,153.5a9.75,9.75,0,0,0-9.74,9.58A9.54,9.54,0,0,0,277,172.92Z"/><path class="cls-1" d="M268.31,287.88c27-.23,45.83-18.64,46.29-45.67q.6-35.33,0-70.68c-.47-26.48-19-44.9-45.18-45.21-23.78-.28-47.58-.35-71.36.07-24.88.44-43.09,18.21-44.2,43-.56,12.54-.1,25.13-.1,37.69h-.19c0,10.88-.12,21.77.06,32.65a68.4,68.4,0,0,0,1.27,13.36c4.58,21.09,21.87,34.59,44.75,34.8S245.42,288.08,268.31,287.88ZM168.11,240.3c-.14-22.55-.18-45.11.09-67.66a43.25,43.25,0,0,1,2.65-14.1c4-11,12.8-16.89,24-17.18,25.56-.68,51.16-.93,76.71-.12,17.34.55,28.15,13.1,28.44,30.6.19,11.78,0,23.56,0,35.35h0c0,11,0,22,0,33-.08,20-11.95,32.22-31.94,32.41q-34,.32-68,0C180.52,272.39,168.24,259.91,168.11,240.3Z"/><path class="cls-1" d="M275.73,206.81a41.66,41.66,0,0,0-83.31-.18c-.15,22.35,18.56,41,41.22,41.07C256.89,247.78,275.63,229.58,275.73,206.81Zm-41.8,26.4a26.79,26.79,0,1,1,26.58-26.93A26.85,26.85,0,0,1,233.93,233.21Z"/></svg>